<?xml version="1.0" standalone="no"?>
<!DOCTYPE svg PUBLIC "-//W3C//DTD SVG 20010904//EN"
 "http://www.w3.org/TR/2001/REC-SVG-20010904/DTD/svg10.dtd">
<svg version="1.0" xmlns="http://www.w3.org/2000/svg"
 width="500.000000pt" height="500.000000pt" viewBox="0 0 500.000000 500.000000"
 preserveAspectRatio="xMidYMid meet">

<g transform="translate(0.000000,500.000000) scale(0.100000,-0.100000)"
fill="#FFFFFF" stroke="none">
<path d="M2250 3844 c-25 -8 -52 -20 -62 -27 -9 -7 -48 -112 -87 -232 l-71
-220 -63 3 c-142 7 -295 -49 -401 -149 -163 -152 -204 -397 -98 -593 32 -59
115 -151 171 -190 l40 -28 -26 -47 c-48 -84 -111 -176 -154 -225 -50 -57 -48
-59 63 -76 104 -17 187 -7 266 30 65 30 167 119 202 176 18 28 26 32 83 38
225 26 438 83 616 167 l86 40 91 -94 c50 -52 120 -132 155 -178 78 -103 109
-134 170 -165 95 -48 207 -39 270 22 l27 26 -23 66 c-47 136 -113 258 -204
377 -59 77 -117 222 -97 245 171 202 250 323 322 497 46 110 68 175 51 149
-50 -77 -137 -193 -192 -256 -73 -83 -234 -230 -251 -230 -6 0 -21 28 -34 63
-65 183 -203 479 -277 597 -80 126 -182 200 -304 220 -89 14 -215 11 -269 -6z
m384 -547 c30 -78 57 -150 61 -160 5 -12 -34 4 -131 54 -77 40 -141 73 -142
75 -2 1 20 69 49 150 l54 147 27 -61 c16 -34 52 -126 82 -205z m-734 -315 c0
-14 -31 -113 -62 -200 l-30 -83 -24 22 c-48 45 -52 119 -12 186 27 46 128 104
128 75z m495 -140 c70 -41 214 -144 215 -153 0 -4 -53 -20 -117 -37 -109 -29
-170 -41 -280 -56 l-42 -6 13 37 c16 45 83 219 96 251 11 26 10 26 115 -36z"/>
<path d="M1567 1813 c-8 -12 -137 -331 -137 -337 0 -3 18 -6 40 -6 36 0 41 3
54 35 15 35 15 35 81 35 66 0 66 0 81 -35 13 -32 18 -35 55 -35 48 0 51 -19
-34 190 l-64 155 -35 3 c-20 2 -38 -1 -41 -5z m72 -190 c1 -8 -12 -13 -34 -13
-40 0 -40 0 -18 59 l17 44 17 -39 c10 -21 18 -45 18 -51z"/>
<path d="M1800 1645 l0 -175 100 0 100 0 0 35 0 35 -60 0 -60 0 0 140 0 140
-40 0 -40 0 0 -175z"/>
<path d="M2040 1645 l0 -175 40 0 40 0 0 175 0 175 -40 0 -40 0 0 -175z"/>
<path d="M2290 1645 l0 -175 40 0 40 0 0 67 0 67 51 -67 52 -67 83 0 83 0 13
35 12 36 70 -3 c70 -3 70 -3 80 -35 l9 -33 193 0 194 0 0 35 0 34 -80 3 -80 3
33 55 c19 30 57 92 85 138 l52 82 -145 0 -145 0 0 -35 0 -34 74 -3 74 -3 -82
-132 c-44 -73 -83 -133 -86 -133 -3 0 -35 76 -71 168 l-67 167 -39 3 -39 3
-49 -123 c-26 -68 -57 -143 -67 -166 l-18 -44 -52 62 -51 62 27 21 c52 43 54
120 4 162 -26 22 -39 25 -114 25 l-84 0 0 -175z m131 105 c37 -20 21 -80 -22
-80 -28 0 -29 2 -29 45 0 48 11 56 51 35z m343 -118 c7 -20 4 -22 -33 -22
l-40 0 13 33 c7 17 16 41 20 52 7 18 9 17 20 -11 8 -17 17 -40 20 -52z"/>
<path d="M3357 1813 c-8 -12 -137 -331 -137 -337 0 -3 18 -6 40 -6 36 0 41 3
54 35 15 35 15 35 81 35 66 0 66 0 81 -35 13 -32 18 -35 55 -35 48 0 51 -19
-34 190 l-64 155 -35 3 c-20 2 -38 -1 -41 -5z m72 -190 c1 -8 -12 -13 -34 -13
-40 0 -40 0 -18 59 l17 44 17 -39 c10 -21 18 -45 18 -51z"/>
</g>
</svg>
